<mxfile host="Electron" agent="Mozilla/5.0 (Windows NT 10.0; Win64; x64) AppleWebKit/537.36 (KHTML, like Gecko) draw.io/25.0.1 Chrome/128.0.6613.186 Electron/32.2.6 Safari/537.36" version="25.0.1">
  <diagram name="第 1 页" id="ewl9boTtj5eG1xmZE2dz">
    <mxGraphModel dx="244" dy="156" grid="1" gridSize="3.937" guides="1" tooltips="1" connect="1" arrows="1" fold="1" page="1" pageScale="1" pageWidth="48" pageHeight="48" background="#EBEBEB" math="0" shadow="0">
      <root>
        <mxCell id="0" />
        <mxCell id="1" parent="0" />
        <mxCell id="rnx2ZesQ3LvqRwgHEvtc-6" value="" style="endArrow=none;html=1;rounded=0;strokeWidth=2;strokeColor=#404040;entryX=1;entryY=0.512;entryDx=0;entryDy=0;entryPerimeter=0;" parent="1" target="rnx2ZesQ3LvqRwgHEvtc-11" edge="1">
          <mxGeometry width="50" height="50" relative="1" as="geometry">
            <mxPoint x="39.37" y="39" as="sourcePoint" />
            <mxPoint x="39" y="24" as="targetPoint" />
          </mxGeometry>
        </mxCell>
        <mxCell id="rnx2ZesQ3LvqRwgHEvtc-11" value="" style="verticalLabelPosition=bottom;verticalAlign=top;html=1;shape=mxgraph.basic.arc;startAngle=0;endAngle=0.25492074927787245;fillColor=none;strokeColor=#404040;strokeWidth=2;" parent="1" vertex="1">
          <mxGeometry x="7.87" y="7.87" width="31.49" height="31.5" as="geometry" />
        </mxCell>
        <mxCell id="rnx2ZesQ3LvqRwgHEvtc-13" value="" style="endArrow=none;html=1;rounded=0;entryX=0.502;entryY=0.002;entryDx=0;entryDy=0;entryPerimeter=0;strokeWidth=2;strokeColor=#404040;" parent="1" target="rnx2ZesQ3LvqRwgHEvtc-11" edge="1">
          <mxGeometry width="50" height="50" relative="1" as="geometry">
            <mxPoint x="8" y="8" as="sourcePoint" />
            <mxPoint x="38" y="4" as="targetPoint" />
          </mxGeometry>
        </mxCell>
      </root>
    </mxGraphModel>
  </diagram>
</mxfile>
